<?xml version="1.0" encoding="UTF-8" standalone="no"?>
<svg
   xmlns:dc="http://purl.org/dc/elements/1.1/"
   xmlns:cc="http://creativecommons.org/ns#"
   xmlns:rdf="http://www.w3.org/1999/02/22-rdf-syntax-ns#"
   xmlns:svg="http://www.w3.org/2000/svg"
   xmlns="http://www.w3.org/2000/svg"
   viewBox="0 0 40 40"
   height="32"
   width="32"
   xml:space="preserve"
   version="1.1"
   id="svg2"><metadata
     id="metadata8"><rdf:RDF><cc:Work
         rdf:about=""><dc:format>image/svg+xml</dc:format><dc:type
           rdf:resource="http://purl.org/dc/dcmitype/StillImage" /><dc:title></dc:title></cc:Work></rdf:RDF></metadata><defs
     id="defs6"><clipPath
       id="clipPath16"
       clipPathUnits="userSpaceOnUse"><path
         id="path18"
         d="M 0,32 32,32 32,0 0,0 0,32 Z" /></clipPath></defs><g
     transform="matrix(1.25,0,0,-1.25,0,40)"
     id="g10"><g
       id="g12"><g
         clip-path="url(#clipPath16)"
         id="g14"><g
           transform="translate(22.3623,19.2617)"
           id="g20"><path
             id="path22"
             style="fill:#3dace2;fill-opacity:1;fill-rule:nonzero;stroke:none"
             d="m 0,0 c 0.007,-0.141 0.01,-0.281 0.01,-0.424 0,-4.338 -3.302,-9.34 -9.34,-9.34 -1.855,0 -3.579,0.543 -5.032,1.475 0.258,-0.029 0.518,-0.045 0.783,-0.045 1.539,0 2.953,0.523 4.076,1.404 -1.435,0.028 -2.648,0.977 -3.065,2.28 0.2,-0.037 0.405,-0.059 0.617,-0.059 0.3,0 0.59,0.041 0.864,0.115 -1.5,0.303 -2.633,1.629 -2.633,3.219 l 0,0.041 c 0.444,-0.246 0.949,-0.393 1.488,-0.41 -0.881,0.588 -1.46,1.594 -1.46,2.732 0,0.602 0.162,1.166 0.444,1.651 1.618,-1.987 4.038,-3.293 6.766,-3.43 -0.056,0.24 -0.085,0.49 -0.085,0.748 0,1.813 1.469,3.281 3.283,3.281 0.943,0 1.797,-0.398 2.395,-1.035 C -0.142,2.35 0.562,2.623 1.196,3 0.95,2.232 0.431,1.59 -0.247,1.184 0.417,1.262 1.05,1.439 1.638,1.699 1.198,1.041 0.642,0.463 0,0 m -6.362,12.738 c -8.836,0 -16,-7.164 -16,-16 0,-8.838 7.164,-16 16,-16 8.836,0 16,7.162 16,16 0,8.836 -7.164,16 -16,16" /></g></g></g></g></svg>
