<?xml version="1.0" encoding="UTF-8" standalone="no"?>
<svg
   xmlns:dc="http://purl.org/dc/elements/1.1/"
   xmlns:cc="http://creativecommons.org/ns#"
   xmlns:rdf="http://www.w3.org/1999/02/22-rdf-syntax-ns#"
   xmlns:svg="http://www.w3.org/2000/svg"
   xmlns="http://www.w3.org/2000/svg"
   viewBox="0 0 40 40"
   height="32"
   width="32"
   xml:space="preserve"
   version="1.1"
   id="svg2"><metadata
     id="metadata8"><rdf:RDF><cc:Work
         rdf:about=""><dc:format>image/svg+xml</dc:format><dc:type
           rdf:resource="http://purl.org/dc/dcmitype/StillImage" /><dc:title></dc:title></cc:Work></rdf:RDF></metadata><defs
     id="defs6"><clipPath
       id="clipPath16"
       clipPathUnits="userSpaceOnUse"><path
         id="path18"
         d="M 0,32 32,32 32,0 0,0 0,32 Z" /></clipPath></defs><g
     transform="matrix(1.25,0,0,-1.25,0,40)"
     id="g10"><g
       id="g12"><g
         clip-path="url(#clipPath16)"
         id="g14"><g
           transform="translate(15.8584,18.4375)"
           id="g20"><path
             id="path22"
             style="fill:#ef4345;fill-opacity:1;fill-rule:nonzero;stroke:none"
             d="m 0,0 c 0.124,0 0.222,0.033 0.294,0.102 0.073,0.068 0.11,0.164 0.11,0.283 l 0,2.429 C 0.404,2.912 0.367,2.99 0.293,3.051 0.219,3.111 0.121,3.141 0,3.141 -0.11,3.141 -0.201,3.111 -0.271,3.051 -0.34,2.99 -0.375,2.912 -0.375,2.814 l 0,-2.429 c 0,-0.123 0.033,-0.217 0.098,-0.283 C -0.213,0.031 -0.12,0 0,0" /></g><g
           transform="translate(17.8252,10.7988)"
           id="g24"><path
             id="path26"
             style="fill:#ef4345;fill-opacity:1;fill-rule:nonzero;stroke:none"
             d="m 0,0 c 0,-0.131 -0.023,-0.223 -0.069,-0.279 -0.047,-0.059 -0.119,-0.088 -0.219,-0.088 -0.068,0 -0.133,0.015 -0.195,0.045 -0.063,0.027 -0.127,0.078 -0.193,0.142 l 0,2.524 c 0.056,0.056 0.111,0.097 0.167,0.125 0.057,0.025 0.114,0.039 0.172,0.039 0.108,0 0.193,-0.035 0.252,-0.106 C -0.027,2.332 0,2.229 0,2.09 L 0,0 Z M 0.045,3.15 C -0.081,3.15 -0.205,3.119 -0.329,3.055 -0.45,2.99 -0.566,2.895 -0.676,2.773 l 0,1.768 -0.818,0 0,-5.49 0.818,0 0,0.31 C -0.57,-0.764 -0.453,-0.854 -0.329,-0.912 -0.206,-0.973 -0.065,-1 0.094,-1 c 0.239,0 0.424,0.074 0.55,0.229 0.127,0.154 0.19,0.373 0.19,0.658 l 0,2.248 C 0.834,2.467 0.768,2.719 0.632,2.893 0.497,3.064 0.302,3.15 0.045,3.15" /></g><g
           transform="translate(10.2559,14.541)"
           id="g28"><path
             id="path30"
             style="fill:#ef4345;fill-opacity:1;fill-rule:nonzero;stroke:none"
             d="m 0,0 0.943,0 0,-4.691 0.912,0 0,4.691 0.945,0 0,0.799 -2.8,0 L 0,0 Z" /></g><g
           transform="translate(14.9131,10.8242)"
           id="g32"><path
             id="path34"
             style="fill:#ef4345;fill-opacity:1;fill-rule:nonzero;stroke:none"
             d="m 0,0 c -0.076,-0.088 -0.159,-0.16 -0.251,-0.219 -0.091,-0.056 -0.167,-0.084 -0.226,-0.084 -0.075,0 -0.13,0.02 -0.166,0.065 -0.032,0.043 -0.049,0.111 -0.049,0.207 l 0,3.107 -0.81,0 0,-3.387 c 0,-0.242 0.048,-0.419 0.142,-0.541 0.095,-0.123 0.235,-0.181 0.423,-0.181 0.152,0 0.309,0.041 0.47,0.129 0.162,0.086 0.318,0.211 0.467,0.375 l 0,-0.446 0.81,0 0,4.051 L 0,3.076 0,0 Z" /></g><g
           transform="translate(24,11.0977)"
           id="g36"><path
             id="path38"
             style="fill:#ef4345;fill-opacity:1;fill-rule:nonzero;stroke:none"
             d="m 0,0 c 0,-1.613 -1.31,-2.924 -2.923,-2.924 l -10.155,0 C -14.692,-2.924 -16,-1.613 -16,0 l 0,2.35 c 0,1.613 1.308,2.923 2.922,2.923 l 10.155,0 C -1.31,5.273 0,3.963 0,2.35 L 0,0 Z m -11.937,12.727 0.666,-2.418 0.065,0 0.636,2.418 1.042,0 -1.195,-3.539 0,-2.508 -1.025,0 0,2.396 -1.222,3.651 1.033,0 z m 2.483,-2.606 c 0,0.346 0.123,0.621 0.367,0.824 0.245,0.205 0.576,0.307 0.99,0.307 0.377,0 0.686,-0.107 0.928,-0.322 0.239,-0.215 0.359,-0.496 0.359,-0.834 l 0,-2.305 c 0,-0.383 -0.117,-0.68 -0.352,-0.898 -0.237,-0.217 -0.563,-0.327 -0.977,-0.327 -0.398,0 -0.717,0.114 -0.957,0.338 -0.238,0.225 -0.358,0.526 -0.358,0.905 l 0,2.312 z m 3.384,1.02 0.91,0 0,-3.42 c 0,-0.106 0.021,-0.182 0.058,-0.229 0.038,-0.049 0.101,-0.072 0.186,-0.072 0.066,0 0.152,0.031 0.255,0.094 0.101,0.064 0.195,0.142 0.28,0.24 l 0,3.387 0.912,0 0,-4.461 -0.912,0 0,0.494 C -4.548,6.992 -4.723,6.852 -4.905,6.758 -5.087,6.664 -5.263,6.613 -5.434,6.613 c -0.212,0 -0.369,0.069 -0.476,0.203 -0.107,0.131 -0.16,0.33 -0.16,0.596 l 0,3.729 z M -8,20.902 c -8.836,0 -16,-7.164 -16,-16 0,-8.838 7.164,-16 16,-16 8.837,0 16,7.162 16,16 0,8.836 -7.163,16 -16,16" /></g><g
           transform="translate(20.6338,12.4082)"
           id="g40"><path
             id="path42"
             style="fill:#ef4345;fill-opacity:1;fill-rule:nonzero;stroke:none"
             d="m 0,0 -0.716,0 0,0.408 c 0,0.17 0.028,0.293 0.084,0.363 0.057,0.077 0.149,0.114 0.278,0.114 0.123,0 0.214,-0.037 0.269,-0.114 C -0.029,0.701 0,0.578 0,0.408 L 0,0 Z m -0.32,1.592 c -0.363,0 -0.657,-0.11 -0.886,-0.33 -0.23,-0.221 -0.344,-0.51 -0.344,-0.86 l 0,-1.818 c 0,-0.391 0.106,-0.697 0.313,-0.918 0.208,-0.225 0.494,-0.334 0.856,-0.334 0.403,0 0.707,0.104 0.908,0.313 0.205,0.21 0.306,0.523 0.306,0.939 l 0,0.207 -0.833,0 0,-0.184 c 0,-0.238 -0.028,-0.392 -0.08,-0.462 -0.054,-0.071 -0.148,-0.106 -0.282,-0.106 -0.129,0 -0.221,0.041 -0.275,0.123 -0.052,0.084 -0.079,0.233 -0.079,0.445 l 0,0.762 1.549,0 0,1.033 c 0,0.385 -0.1,0.678 -0.299,0.883 C 0.336,1.49 0.051,1.592 -0.32,1.592" /></g></g></g></g></svg>
