<?xml version="1.0" encoding="UTF-8" standalone="no"?>
<svg
  xmlns:dc="http://purl.org/dc/elements/1.1/"
  xmlns:cc="http://creativecommons.org/ns#"
  xmlns:rdf="http://www.w3.org/1999/02/22-rdf-syntax-ns#"
  xmlns:svg="http://www.w3.org/2000/svg"
  xmlns="http://www.w3.org/2000/svg"
  viewBox="0 0 40 40"
  height="32"
  width="32"
  xml:space="preserve"
  version="1.1"
  id="svg2">
  <metadata id="metadata8">
    <rdf:RDF>
      <cc:Work rdf:about="">
        <dc:format>image/svg+xml</dc:format><dc:type rdf:resource="http://purl.org/dc/dcmitype/StillImage"/>
        <dc:title></dc:title>
      </cc:Work>
    </rdf:RDF>
  </metadata>
  <defs id="defs6">
    <clipPath id="clipPath16" clipPathUnits="userSpaceOnUse"><path id="path18" d="M 0,32 32,32 32,0 0,0 0,32 Z"/></clipPath>
  </defs>
  <g transform="matrix(1.25,0,0,-1.25,0,40)" id="g10">
    <g id="g12">
      <g clip-path="url(#clipPath16)" id="g14">
        <g transform="translate(19.4277,15.9941)" id="g20"><path
          id="path22"
          style="fill:#4467a2;fill-opacity:1;fill-rule:nonzero;stroke:none"
          d="m 0,0 -2.242,0 0,-7.994 -3.322,0 0,7.994 -1.581,0 0,2.824 1.581,0 0,1.828 c 0,1.309 0.621,3.354 3.352,3.354 l 2.461,-0.01 0,-2.742 -1.786,0 c -0.291,0 -0.705,-0.145 -0.705,-0.77 l 0,-1.66 2.533,0 L 0,0 Z m -3.428,16.006 c -8.836,0 -16,-7.164 -16,-16 0,-8.838 7.164,-16 16,-16 8.837,0 16,7.162 16,16 0,8.836 -7.163,16 -16,16"/></g>
      </g>
    </g>
  </g>
</svg>
