<?xml version="1.0" encoding="UTF-8" standalone="no"?>
<svg
   xmlns:dc="http://purl.org/dc/elements/1.1/"
   xmlns:cc="http://creativecommons.org/ns#"
   xmlns:rdf="http://www.w3.org/1999/02/22-rdf-syntax-ns#"
   xmlns:svg="http://www.w3.org/2000/svg"
   xmlns="http://www.w3.org/2000/svg"
   viewBox="0 0 40 40"
   height="32"
   width="32"
   xml:space="preserve"
   version="1.1"
   id="svg2"><metadata
     id="metadata8"><rdf:RDF><cc:Work
         rdf:about=""><dc:format>image/svg+xml</dc:format><dc:type
           rdf:resource="http://purl.org/dc/dcmitype/StillImage" /><dc:title></dc:title></cc:Work></rdf:RDF></metadata><defs
     id="defs6"><clipPath
       id="clipPath16"
       clipPathUnits="userSpaceOnUse"><path
         id="path18"
         d="M 0,32 32,32 32,0 0,0 0,32 Z" /></clipPath></defs><g
     transform="matrix(1.25,0,0,-1.25,0,40)"
     id="g10"><g
       id="g12"><g
         clip-path="url(#clipPath16)"
         id="g14"><g
           transform="translate(12.751,23.2324)"
           id="g20"><path
             id="path22"
             style="fill:#dd5d4e;fill-opacity:1;fill-rule:nonzero;stroke:none"
             d="m 0,0 c -1.271,0.037 -2.124,-1.24 -1.903,-2.908 0.218,-1.67 1.426,-2.836 2.698,-2.875 1.27,-0.037 2.001,1.037 1.782,2.707 C 2.358,-1.408 1.271,-0.039 0,0" /></g><g
           transform="translate(13.2852,14.0332)"
           id="g24"><path
             id="path26"
             style="fill:#dd5d4e;fill-opacity:1;fill-rule:nonzero;stroke:none"
             d="m 0,0 c -1.895,0.021 -3.499,-1.195 -3.499,-2.607 0,-1.44 1.368,-2.639 3.262,-2.639 2.663,0 3.591,1.125 3.591,2.566 0,0.174 -0.022,0.344 -0.061,0.508 C 3.084,-1.357 2.256,-0.91 1.227,-0.195 0.854,-0.074 0.441,-0.004 0,0" /></g><g
           transform="translate(23.9941,20.5176)"
           id="g28"><path
             id="path30"
             style="fill:#dd5d4e;fill-opacity:1;fill-rule:nonzero;stroke:none"
             d="m 0,0 -2.176,0 0,-2.174 -1.088,0 0,2.174 -2.174,0 0,1.088 2.174,0 0,2.176 1.088,0 0,-2.176 L 0,1.088 0,0 Z m -6.771,-0.291 c 0,-1.043 -0.578,-1.883 -1.393,-2.52 -0.797,-0.623 -0.947,-0.882 -0.947,-1.412 0,-0.451 0.951,-1.123 1.388,-1.451 1.523,-1.142 1.831,-1.861 1.831,-3.289 0,-1.783 -1.92,-3.555 -5.044,-3.555 -2.74,0 -5.052,1.114 -5.052,2.897 0,1.809 1.918,3.695 4.658,3.695 0.299,0 0.572,0.008 0.855,0.008 -0.375,0.363 -0.677,0.678 -0.677,1.229 0,0.328 0.103,0.64 0.25,0.919 -0.149,-0.009 -0.301,-0.019 -0.457,-0.019 -2.251,0 -3.562,1.582 -3.562,3.564 0,1.942 1.995,3.707 4.388,3.707 l 4.716,0 -1.054,-1.107 -1.238,0 c 0.874,-0.5 1.338,-1.529 1.338,-2.666 m -1.223,11.773 c -8.836,0 -16,-7.164 -16,-16 0,-8.837 7.164,-16 16,-16 8.837,0 16,7.163 16,16 0,8.836 -7.163,16 -16,16" /></g></g></g></g></svg>
