<svg
  xmlns:dc="http://purl.org/dc/elements/1.1/"
  xmlns:cc="http://creativecommons.org/ns#"
  xmlns:rdf="http://www.w3.org/1999/02/22-rdf-syntax-ns#"
  xmlns:svg="http://www.w3.org/2000/svg"
  xmlns="http://www.w3.org/2000/svg"
  viewBox="0 0 316.6925 292.97751"
  height="82"
  width="89"
  xml:space="preserve"
  version="1.1"
  id="svg2">
  <metadata id="metadata8">
    <rdf:RDF>
      <cc:Work rdf:about="">
        <dc:format>image/svg+xml</dc:format><dc:type rdf:resource="http://purl.org/dc/dcmitype/StillImage"/>
        <dc:title></dc:title>
      </cc:Work>
    </rdf:RDF>
  </metadata>
  <defs id="defs6">
    <clipPath id="clipPath44" clipPathUnits="userSpaceOnUse"><path id="path46" d="m 0,234.382 253.354,0 L 253.354,0 0,0 0,234.382 Z"/></clipPath>
  </defs>
  <g transform="matrix(1.25,0,0,-1.25,0,292.9775)" id="g10">
    <g transform="translate(17.4213,64.5759)" id="g12"><path id="path14" style="fill:#272525;fill-opacity:1;fill-rule:nonzero;stroke:none" d="m 0,0 0,-3.335 3.131,0 -6.879,-17.588 -6.836,17.588 2.964,0 0,3.335 -9.801,0 0,-3.335 2.592,0 9.927,-24.135 2.144,0 9.966,24.135 2.594,0 L 9.802,0 0,0 Z"/></g>
    <g transform="translate(39.3901,40.8125)" id="g16"><path
      id="path18"
      style="fill:#272525;fill-opacity:1;fill-rule:nonzero;stroke:none"
      d="m 0,0 3.295,0 0,20.428 -3.295,0 0,3.336 19.895,0 0,-7.084 -3.543,0 0,3.789 -9.308,0 0,-8.403 8.566,0 0,-3.211 -8.566,0 0,-8.897 9.308,0 0,3.789 3.582,0 0,-7.086 L 0,-3.339 0,0 Z"/></g>
    <g transform="translate(80.0576,57.9448)" id="g20"><path
      id="path22"
      style="fill:#272525;fill-opacity:1;fill-rule:nonzero;stroke:none"
      d="m 0,0 0,-17.132 3.461,0 0,-3.337 -10.38,0 0,3.337 3.295,0 0,20.426 -3.295,0 0,3.337 6.507,0 14.665,-19.111 0,15.774 -3.461,0 0,3.337 10.256,0 0,-3.337 -3.174,0 0,-23.846 -2.057,-0.042 L 0,0 Z"/></g>
    <g transform="translate(119.6533,40.8125)" id="g24"><path id="path26" style="fill:#272525;fill-opacity:1;fill-rule:nonzero;stroke:none" d="m 0,0 3.543,0 0,20.552 -6.055,0 0,-4.324 -3.542,0 0,7.536 22.941,0 0,-7.536 -3.543,0 0,4.324 -6.054,0 0,-20.552 3.543,0 0,-3.339 L 0,-3.339 0,0 Z"/></g>
    <g transform="translate(146.2788,40.8125)" id="g28"><path
      id="path30"
      style="fill:#272525;fill-opacity:1;fill-rule:nonzero;stroke:none"
      d="m 0,0 2.47,0 7.537,20.468 -3.007,0 0,3.296 13.592,0 0,-3.296 -3.049,0 L 25.081,0 l 2.516,0 0,-3.339 -9.641,0 0,3.297 3.131,0 -2.02,5.725 -10.707,0 -2.02,-5.725 3.297,0 0,-3.297 L 0,-3.339 0,0 Z M 17.998,8.813 13.713,20.634 9.432,8.813 l 8.566,0 z"/></g>
    <g transform="translate(192.9585,57.9448)" id="g32"><path
      id="path34"
      style="fill:#272525;fill-opacity:1;fill-rule:nonzero;stroke:none"
      d="m 0,0 0,-17.132 3.461,0 0,-3.337 -10.382,0 0,3.337 3.297,0 0,20.426 -3.297,0 0,3.337 6.507,0 14.665,-19.111 0,15.774 -3.461,0 0,3.337 10.258,0 0,-3.337 -3.173,0 0,-23.846 -2.059,-0.042 L 0,0 Z"/></g>
    <g transform="translate(232.7616,64.5759)" id="g36"><path
      id="path38"
      style="fill:#272525;fill-opacity:1;fill-rule:nonzero;stroke:none"
      d="m 0,0 0,-3.295 3.004,0 -7.535,-20.469 -2.47,0 0,-3.339 9.635,0 0,3.296 -3.295,0 2.021,5.728 10.706,0 2.021,-5.728 -3.131,0 0,-3.296 9.636,0 0,3.339 -2.514,0 -7.534,20.469 3.05,0 0,3.295 L 0,0 Z m 6.713,-3.13 4.285,-11.821 -8.57,0 4.285,11.821 z"/></g>
    <g id="g40">
      <g clip-path="url(#clipPath44)" id="g42">
        <g transform="translate(163.8579,198.4785)" id="g48"><path
          id="path50"
          style="fill:#d4521c;fill-opacity:1;fill-rule:nonzero;stroke:none"
          d="m 0,0 c -2.71,1.51 -6.129,0.54 -7.641,-2.169 l -29.548,-52.954 -29.533,52.952 c -1.51,2.71 -4.932,3.683 -7.64,2.171 -2.71,-1.51 -3.681,-4.934 -2.169,-7.64 l 32.911,-59.009 -9.895,-17.733 -0.455,-1.026 -0.038,-0.088 c -0.952,-2.254 -1.436,-4.646 -1.436,-7.104 0,-2.462 0.484,-4.853 1.436,-7.107 0.92,-2.176 2.235,-4.128 3.913,-5.801 1.675,-1.674 3.623,-2.989 5.794,-3.908 2.253,-0.952 4.646,-1.436 7.11,-1.436 2.463,0 4.852,0.484 7.107,1.436 2.172,0.919 4.122,2.234 5.798,3.908 1.673,1.673 2.989,3.625 3.909,5.804 0.955,2.251 1.436,4.643 1.436,7.104 0,2.458 -0.481,4.848 -1.436,7.103 l -0.492,1.114 -9.888,17.732 32.923,59.009 C 3.678,-4.934 2.708,-1.514 0,0 m -30.174,-92.6 c 0,-0.95 -0.182,-1.869 -0.55,-2.731 -0.352,-0.835 -0.858,-1.586 -1.504,-2.234 -0.646,-0.646 -1.399,-1.153 -2.235,-1.504 -0.858,-0.367 -1.777,-0.551 -2.728,-0.551 -0.952,0 -1.87,0.184 -2.732,0.551 -0.835,0.351 -1.588,0.858 -2.234,1.504 -0.645,0.648 -1.155,1.399 -1.506,2.233 -0.362,0.863 -0.549,1.781 -0.549,2.732 0,0.933 0.18,1.841 0.533,2.691 l 0.222,0.504 6.266,11.226 6.261,-11.226 0.226,-0.504 c 0.35,-0.851 0.53,-1.758 0.53,-2.691"/></g>
        <g transform="translate(126.6763,198.4956)" id="g52"><path
          id="path54"
          style="fill:#d4521c;fill-opacity:1;fill-rule:nonzero;stroke:none"
          d="m 0,0 c 9.895,0 17.944,8.049 17.944,17.943 0,9.895 -8.049,17.944 -17.944,17.944 -9.893,0 -17.943,-8.049 -17.943,-17.944 C -17.943,8.049 -9.893,0 0,0 m 0,24.653 c 3.7,0 6.71,-3.01 6.71,-6.71 C 6.71,14.244 3.7,11.23 0,11.23 c -3.7,0 -6.71,3.014 -6.71,6.713 0,3.7 3.01,6.71 6.71,6.71"/></g>
        <g transform="translate(71.0308,0.5796)" id="g56"><path
          id="path58"
          style="fill:#272525;fill-opacity:1;fill-rule:nonzero;stroke:none"
          d="m 0,0 0,17.417 6.467,0 c 3.095,0 5.177,-1.204 5.177,-4.527 0,-1.572 -0.51,-2.843 -1.919,-3.558 l 0,-0.047 C 12.218,8.963 13.281,7.277 13.281,4.852 13.281,1.2 10.164,0 6.975,0 L 0,0 Z m 4.527,10.582 0.508,0 c 1.2,0 2.448,0.205 2.448,1.684 0,1.594 -1.409,1.686 -2.632,1.686 l -0.324,0 0,-3.37 z m 0,-7.118 0.577,0 c 1.34,0 3.604,-0.071 3.604,1.849 0,2.102 -2.241,1.895 -3.717,1.895 l -0.464,0 0,-3.744 z"/></g>
        <g transform="translate(117.5664,10.3042)" id="g60"><path
          id="path62"
          style="fill:#272525;fill-opacity:1;fill-rule:nonzero;stroke:none"
          d="m 0,0 c -0.046,-2.54 -0.226,-4.711 -1.776,-6.883 -1.711,-2.38 -4.274,-3.421 -7.186,-3.421 -5.475,0 -9.286,3.719 -9.286,9.197 0,5.658 3.836,9.379 9.448,9.379 3.581,0 6.355,-1.62 7.854,-4.875 L -5.242,1.593 c -0.625,1.665 -1.94,2.774 -3.765,2.774 -2.981,0 -4.528,-2.844 -4.528,-5.499 0,-2.703 1.614,-5.453 4.597,-5.453 1.963,0 3.464,1.017 3.651,3.027 l -3.697,0 0,3.558 L 0,0 Z"/></g>
        <g transform="translate(138.8726,13.5171)" id="g64"><path
          id="path66"
          style="fill:#272525;fill-opacity:1;fill-rule:nonzero;stroke:none"
          d="m 0,0 c -0.83,0.691 -1.894,1.154 -3.004,1.154 -0.831,0 -1.939,-0.485 -1.939,-1.456 0,-1.015 1.222,-1.408 2.012,-1.663 l 1.151,-0.347 c 2.427,-0.716 4.301,-1.94 4.301,-4.758 0,-1.733 -0.418,-3.509 -1.802,-4.691 -1.366,-1.152 -3.19,-1.642 -4.945,-1.642 -2.196,0 -4.344,0.743 -6.123,1.99 l 1.944,3.649 c 1.128,-0.993 2.471,-1.801 4.017,-1.801 1.062,0 2.195,0.531 2.195,1.754 0,1.27 -1.782,1.711 -2.75,1.989 -2.839,0.806 -4.709,1.548 -4.709,4.921 0,3.534 2.51,5.843 6.006,5.843 1.752,0 3.905,-0.555 5.449,-1.433 L 0,0 Z"/></g>
        <g transform="translate(161.6675,17.9976)" id="g68"><path
          id="path70"
          style="fill:#272525;fill-opacity:1;fill-rule:nonzero;stroke:none"
          d="m 0,0 0,-9.795 c 0,-2.243 -0.088,-4.458 -1.826,-6.143 -1.451,-1.434 -3.738,-1.942 -5.774,-1.942 -2.031,0 -4.317,0.508 -5.772,1.942 -1.732,1.685 -1.829,3.9 -1.829,6.143 l 0,9.795 4.528,0 0,-9.17 c 0,-2.267 0.16,-4.738 3.073,-4.738 2.915,0 3.071,2.471 3.071,4.738 L -4.529,0 0,0 Z"/></g>
        <g transform="translate(182.0376,0.5796)" id="g72"><path
          id="path74"
          style="fill:#272525;fill-opacity:1;fill-rule:nonzero;stroke:none"
          d="m 0,0 -5.638,0 -4.273,6.7 -0.044,0 0,-6.7 -4.526,0 0,17.417 6.768,0 c 3.441,0 6.052,-1.641 6.052,-5.36 0,-2.4 -1.341,-4.481 -3.812,-4.921 L 0,0 Z m -9.955,9.61 0.437,0 c 1.482,0 3.144,0.276 3.144,2.171 0,1.893 -1.662,2.171 -3.144,2.171 l -0.437,0 0,-4.342 z"/></g><path id="path76" style="fill:#272525;fill-opacity:1;fill-rule:nonzero;stroke:none" d="m 89.689,0.582 4.527,0 0,17.414 -4.527,0 0,-17.414 z"/></g>
    </g>
  </g>
</svg>
